<svg width="106" height="34" viewBox="0 0 106 34" fill="none" xmlns="http://www.w3.org/2000/svg">
<path d="M38.7725 25.1891C37.2794 25.1891 35.9299 24.8445 34.7239 24.1554C33.5371 23.4471 32.5895 22.49 31.8813 21.2841C31.1922 20.0781 30.8476 18.719 30.8476 17.2068C30.8476 15.6945 31.1635 14.345 31.7951 13.1582C32.446 11.9522 33.3265 11.0047 34.4368 10.3156C35.547 9.60732 36.8008 9.25319 38.1982 9.25319C39.3276 9.25319 40.3709 9.49247 41.328 9.97102C42.2851 10.4304 43.089 11.0621 43.7399 11.8661V4.11351C43.7399 3.67324 43.8739 3.3191 44.1419 3.05111C44.429 2.78312 44.7831 2.64913 45.2043 2.64913C45.6445 2.64913 45.9987 2.78312 46.2667 3.05111C46.5346 3.3191 46.6686 3.67324 46.6686 4.11351V17.2068C46.6686 18.719 46.3145 20.0781 45.6062 21.2841C44.9171 22.49 43.9792 23.4471 42.7923 24.1554C41.6055 24.8445 40.2656 25.1891 38.7725 25.1891ZM38.7725 22.6049C39.7487 22.6049 40.6197 22.3752 41.3854 21.9158C42.1511 21.4372 42.7541 20.7864 43.1943 19.9633C43.6346 19.1401 43.8547 18.2213 43.8547 17.2068C43.8547 16.1731 43.6346 15.2543 43.1943 14.4503C42.7541 13.6463 42.1511 13.0146 41.3854 12.5552C40.6197 12.0767 39.7487 11.8374 38.7725 11.8374C37.8154 11.8374 36.9444 12.0767 36.1596 12.5552C35.3939 13.0146 34.7813 13.6463 34.3219 14.4503C33.8816 15.2543 33.6615 16.1731 33.6615 17.2068C33.6615 18.2213 33.8816 19.1401 34.3219 19.9633C34.7813 20.7864 35.3939 21.4372 36.1596 21.9158C36.9444 22.3752 37.8154 22.6049 38.7725 22.6049ZM50.1465 25.0742C49.7254 25.0742 49.3713 24.9402 49.0841 24.6722C48.8162 24.3851 48.6822 24.031 48.6822 23.6098V10.8324C48.6822 10.3921 48.8162 10.038 49.0841 9.77003C49.3713 9.50204 49.7254 9.36804 50.1465 9.36804C50.5868 9.36804 50.9409 9.50204 51.2089 9.77003C51.4769 10.038 51.6109 10.3921 51.6109 10.8324V23.6098C51.6109 24.031 51.4769 24.3851 51.2089 24.6722C50.9409 24.9402 50.5868 25.0742 50.1465 25.0742ZM50.1465 6.81256C49.6297 6.81256 49.1799 6.63071 48.797 6.267C48.4333 5.88416 48.2515 5.43432 48.2515 4.91748C48.2515 4.40064 48.4333 3.96037 48.797 3.59667C49.1799 3.21382 49.6297 3.0224 50.1465 3.0224C50.6634 3.0224 51.1036 3.21382 51.4674 3.59667C51.8502 3.96037 52.0416 4.40064 52.0416 4.91748C52.0416 5.43432 51.8502 5.88416 51.4674 6.267C51.1036 6.63071 50.6634 6.81256 50.1465 6.81256ZM60.1605 25.1891C58.7249 25.1891 57.4519 24.8541 56.3417 24.1841C55.2506 23.495 54.3892 22.557 53.7575 21.3702C53.1258 20.1642 52.8099 18.786 52.8099 17.2355C52.8099 15.6658 53.1449 14.2876 53.8149 13.1008C54.504 11.8948 55.442 10.9568 56.6288 10.2869C57.8156 9.59775 59.1843 9.25319 60.7348 9.25319C62.2662 9.25319 63.6253 9.59775 64.8121 10.2869C65.9989 10.9568 66.9273 11.8948 67.5973 13.1008C68.2864 14.2876 68.631 15.6658 68.631 17.2355H66.9369C66.9369 18.786 66.6402 20.1642 66.0468 21.3702C65.4725 22.557 64.6781 23.495 63.6636 24.1841C62.649 24.8541 61.4813 25.1891 60.1605 25.1891ZM60.6774 31.5921C59.3183 31.5921 58.0453 31.3241 56.8585 30.7882C55.6717 30.2522 54.6667 29.4674 53.8436 28.4337C53.5948 28.1083 53.499 27.7733 53.5565 27.4287C53.633 27.0842 53.8245 26.8066 54.1307 26.596C54.4753 26.3663 54.8294 26.2897 55.1931 26.3663C55.576 26.4429 55.8822 26.6343 56.112 26.9406C56.6288 27.5914 57.2796 28.0987 58.0645 28.4624C58.8493 28.8261 59.7394 29.0079 60.7348 29.0079C61.6536 29.0079 62.4959 28.7878 63.2616 28.3475C64.0464 27.9073 64.6685 27.2564 65.1279 26.395C65.5873 25.5336 65.8171 24.4808 65.8171 23.2366V19.1593L66.7646 16.6325L68.631 17.2355V23.4376C68.631 24.9498 68.296 26.3185 67.626 27.5436C66.956 28.7878 66.018 29.7736 64.8121 30.501C63.6253 31.2284 62.247 31.5921 60.6774 31.5921ZM60.7348 22.6049C61.7302 22.6049 62.6107 22.3752 63.3764 21.9158C64.1421 21.4563 64.7355 20.8246 65.1566 20.0207C65.5969 19.2167 65.8171 18.2883 65.8171 17.2355C65.8171 16.1827 65.5969 15.2543 65.1566 14.4503C64.7355 13.6272 64.1421 12.9859 63.3764 12.5265C62.6107 12.0671 61.7302 11.8374 60.7348 11.8374C59.7394 11.8374 58.8589 12.0671 58.0932 12.5265C57.3275 12.9859 56.7245 13.6272 56.2842 14.4503C55.844 15.2543 55.6238 16.1827 55.6238 17.2355C55.6238 18.2883 55.844 19.2167 56.2842 20.0207C56.7245 20.8246 57.3275 21.4563 58.0932 21.9158C58.8589 22.3752 59.7394 22.6049 60.7348 22.6049ZM71.2957 25.0742C70.8746 25.0742 70.5204 24.9402 70.2333 24.6722C69.9653 24.3851 69.8313 24.031 69.8313 23.6098V10.8324C69.8313 10.3921 69.9653 10.038 70.2333 9.77003C70.5204 9.50204 70.8746 9.36804 71.2957 9.36804C71.736 9.36804 72.0901 9.50204 72.3581 9.77003C72.6261 10.038 72.7601 10.3921 72.7601 10.8324V23.6098C72.7601 24.031 72.6261 24.3851 72.3581 24.6722C72.0901 24.9402 71.736 25.0742 71.2957 25.0742ZM71.2957 6.81256C70.7788 6.81256 70.329 6.63071 69.9462 6.267C69.5825 5.88416 69.4006 5.43432 69.4006 4.91748C69.4006 4.40064 69.5825 3.96037 69.9462 3.59667C70.329 3.21382 70.7788 3.0224 71.2957 3.0224C71.8125 3.0224 72.2528 3.21382 72.6165 3.59667C72.9993 3.96037 73.1908 4.40064 73.1908 4.91748C73.1908 5.43432 72.9993 5.88416 72.6165 6.267C72.2528 6.63071 71.8125 6.81256 71.2957 6.81256ZM80.477 25.0742C79.5199 25.0742 78.6585 24.8349 77.8928 24.3564C77.1271 23.8587 76.5241 23.1887 76.0839 22.3465C75.6436 21.5042 75.4234 20.5567 75.4234 19.5038V5.80759C75.4234 5.38646 75.5574 5.0419 75.8254 4.77391C76.0934 4.50592 76.438 4.37193 76.8591 4.37193C77.2802 4.37193 77.6248 4.50592 77.8928 4.77391C78.1608 5.0419 78.2948 5.38646 78.2948 5.80759V19.5038C78.2948 20.2695 78.5053 20.9108 78.9265 21.4276C79.3476 21.9445 79.8644 22.2029 80.477 22.2029H81.4532C81.7978 22.2029 82.0849 22.3369 82.3146 22.6049C82.5635 22.8729 82.6879 23.2174 82.6879 23.6386C82.6879 24.0597 82.5252 24.4042 82.1998 24.6722C81.8935 24.9402 81.4915 25.0742 80.9938 25.0742H80.477ZM74.1026 12.4117C73.7006 12.4117 73.3752 12.2968 73.1264 12.0671C72.8775 11.8374 72.7531 11.5503 72.7531 11.2057C72.7531 10.8228 72.8775 10.5166 73.1264 10.2869C73.3752 10.0572 73.7006 9.94231 74.1026 9.94231H80.7354C81.1374 9.94231 81.4628 10.0572 81.7117 10.2869C81.9605 10.5166 82.0849 10.8228 82.0849 11.2057C82.0849 11.5503 81.9605 11.8374 81.7117 12.0671C81.4628 12.2968 81.1374 12.4117 80.7354 12.4117H74.1026ZM89.3887 25.1891C87.9913 25.1891 86.7375 24.8445 85.6272 24.1554C84.517 23.4471 83.6364 22.4996 82.9856 21.3128C82.3539 20.1068 82.038 18.7477 82.038 17.2355C82.038 15.7233 82.3826 14.3642 83.0717 13.1582C83.78 11.9522 84.7275 11.0047 85.9143 10.3156C87.1203 9.60732 88.4698 9.25319 89.9629 9.25319C91.456 9.25319 92.796 9.60732 93.9828 10.3156C95.1696 11.0047 96.1076 11.9522 96.7967 13.1582C97.5049 14.3642 97.8591 15.7233 97.8591 17.2355H96.7393C96.7393 18.7477 96.4138 20.1068 95.763 21.3128C95.1313 22.4996 94.2603 23.4471 93.1501 24.1554C92.0398 24.8445 90.786 25.1891 89.3887 25.1891ZM89.9629 22.6049C90.9392 22.6049 91.8101 22.3752 92.5758 21.9158C93.3415 21.4372 93.9445 20.7959 94.3848 19.992C94.825 19.1688 95.0452 18.25 95.0452 17.2355C95.0452 16.2018 94.825 15.283 94.3848 14.479C93.9445 13.6559 93.3415 13.0146 92.5758 12.5552C91.8101 12.0767 90.9392 11.8374 89.9629 11.8374C89.0058 11.8374 88.1348 12.0767 87.35 12.5552C86.5843 13.0146 85.9718 13.6559 85.5124 14.479C85.0721 15.283 84.8519 16.2018 84.8519 17.2355C84.8519 18.25 85.0721 19.1688 85.5124 19.992C85.9718 20.7959 86.5843 21.4372 87.35 21.9158C88.1348 22.3752 89.0058 22.6049 89.9629 22.6049ZM96.3947 25.1029C95.9736 25.1029 95.6194 24.9689 95.3323 24.7009C95.0643 24.4138 94.9303 24.0597 94.9303 23.6386V19.2454L95.4759 16.2018L97.8591 17.2355V23.6386C97.8591 24.0597 97.7155 24.4138 97.4284 24.7009C97.1604 24.9689 96.8158 25.1029 96.3947 25.1029ZM102.505 25.0742C101.663 25.0742 100.916 24.8445 100.265 24.3851C99.6145 23.9257 99.1073 23.3036 98.7436 22.5187C98.3799 21.7148 98.198 20.7959 98.198 19.7623V4.08479C98.198 3.66366 98.332 3.3191 98.6 3.05111C98.868 2.78312 99.2126 2.64913 99.6337 2.64913C100.055 2.64913 100.399 2.78312 100.667 3.05111C100.935 3.3191 101.069 3.66366 101.069 4.08479V19.7623C101.069 20.4705 101.203 21.0544 101.471 21.5138C101.739 21.9732 102.084 22.2029 102.505 22.2029H103.223C103.606 22.2029 103.912 22.3369 104.142 22.6049C104.391 22.8729 104.515 23.2174 104.515 23.6386C104.515 24.0597 104.333 24.4042 103.969 24.6722C103.606 24.9402 103.137 25.0742 102.562 25.0742H102.505Z" fill="url(#paint0_linear_154_63)"/>
<path fill-rule="evenodd" clip-rule="evenodd" d="M4.53456 25.999L4.52299 25.9922C3.18162 25.2045 2.10867 24.1315 1.32088 22.7901L1.31409 22.7786L1.30751 22.7669C0.530066 21.3848 0.154299 19.8468 0.154299 18.1878C0.154299 16.5291 0.530003 14.9962 1.31231 13.6271L1.31655 13.6197L1.32088 13.6123C2.11008 12.2686 3.18672 11.2013 4.53473 10.4303C5.91843 9.63113 7.46055 9.24365 9.12534 9.24365C10.628 9.24365 12.024 9.56876 13.2784 10.2499C13.379 10.3038 13.4781 10.3593 13.5755 10.4163V5.35834C13.5755 4.82147 13.7378 4.22294 14.2124 3.7483L14.2424 3.71837L14.274 3.69026C14.7209 3.29301 15.2671 3.11133 15.8225 3.11133C16.3593 3.11133 16.9579 3.27366 17.4325 3.7483C17.9071 4.22294 18.0695 4.82147 18.0695 5.35834V18.3584L18.0694 18.3676C18.0484 19.9987 17.6477 21.5058 16.844 22.8526C16.0536 24.177 14.9782 25.2308 13.6364 25.9984C12.2842 26.7824 10.7675 27.1588 9.12534 27.1588C7.46629 27.1588 5.92838 26.7831 4.54626 26.0056L4.53456 25.999ZM12.9177 24.7504C14.0473 24.1049 14.9439 23.2263 15.6073 22.1146C16.2707 21.0029 16.6114 19.7478 16.6294 18.3492V5.35834C16.6294 5.1073 16.5576 4.91007 16.4142 4.76662C16.2707 4.62317 16.0735 4.55145 15.8225 4.55145C15.5894 4.55145 15.3921 4.62317 15.2308 4.76662C15.0873 4.91007 15.0156 5.1073 15.0156 5.35834V13.7499C14.8982 13.5592 14.7711 13.3764 14.6343 13.2015C14.3297 12.812 13.9767 12.4616 13.5755 12.1503C13.2756 11.9176 12.9488 11.7067 12.5949 11.5175C11.5729 10.9617 10.4164 10.6838 9.12534 10.6838C7.69088 10.6838 6.39986 11.0155 5.25229 11.6789C4.12266 12.3244 3.22612 13.212 2.56268 14.3416C1.91717 15.4713 1.59442 16.7533 1.59442 18.1878C1.59442 19.6222 1.91717 20.9133 2.56268 22.0608C3.22612 23.1905 4.12266 24.087 5.25229 24.7504C6.39986 25.396 7.69088 25.7187 9.12534 25.7187C10.5419 25.7187 11.806 25.396 12.9177 24.7504ZM14.2356 15.1216C14.1101 14.8975 13.9722 14.6851 13.822 14.4844C13.7277 14.3585 13.6286 14.2372 13.5245 14.1205C13.1316 13.6797 12.6693 13.3052 12.1377 12.9968C11.2591 12.4589 10.255 12.19 9.12534 12.19C8.01363 12.19 7.00951 12.4589 6.11297 12.9968C5.21643 13.5168 4.50817 14.2251 3.98818 15.1216C3.46818 16.0182 3.20819 17.0402 3.20819 18.1878C3.20819 19.3354 3.46818 20.3664 3.98818 21.2808C4.50817 22.1774 5.21643 22.8946 6.11297 23.4325C7.00951 23.9525 8.01363 24.2125 9.12534 24.2125C10.255 24.2125 11.2591 23.9525 12.1377 23.4325C13.0342 22.8946 13.7335 22.1774 14.2356 21.2808C14.7556 20.3664 15.0156 19.3354 15.0156 18.1878C15.0156 17.2861 14.8551 16.462 14.5341 15.7153C14.4465 15.5116 14.347 15.3137 14.2356 15.1216ZM11.4005 22.1954C12.0839 21.7845 12.6026 21.2495 12.9791 20.5772L12.9814 20.5731L12.9837 20.569C13.3693 19.8909 13.5755 19.1091 13.5755 18.1878C13.5755 17.2661 13.3692 16.4982 12.9899 15.8442L12.9844 15.8348L12.9791 15.8253C12.6043 15.1561 12.0904 14.6342 11.4152 14.2426L11.4003 14.234L11.3857 14.225C10.755 13.8389 10.0161 13.6301 9.12534 13.6301C8.25746 13.6301 7.51234 13.8367 6.85391 14.2317L6.84475 14.2372L6.83551 14.2426C6.15597 14.6367 5.62806 15.1646 5.23393 15.8442C4.85456 16.4982 4.64831 17.2661 4.64831 18.1878C4.64831 19.1067 4.8534 19.8868 5.23704 20.5637C5.63159 21.242 6.16138 21.7801 6.84468 22.1921C7.50356 22.5721 8.25238 22.7724 9.12534 22.7724C10.0234 22.7724 10.7679 22.5689 11.4005 22.1954Z" fill="url(#paint1_linear_154_63)"/>
<path fill-rule="evenodd" clip-rule="evenodd" d="M14.1715 3.57493C14.6491 3.15043 15.2327 2.95703 15.8225 2.95703C16.3896 2.95703 17.0313 3.12886 17.5416 3.63919C18.0519 4.14953 18.2238 4.79122 18.2238 5.35834V18.3594L18.2236 18.3696C18.2024 20.0256 17.7953 21.5596 16.9765 22.9317C16.1725 24.2788 15.0779 25.3514 13.7133 26.1322C12.3354 26.931 10.7916 27.3131 9.12534 27.3131C7.44224 27.3131 5.87787 26.9317 4.47062 26.1401L4.45766 26.1328L4.44485 26.1253C3.0808 25.3242 1.98894 24.2323 1.18783 22.8683L1.18031 22.8555L1.17302 22.8425C0.381443 21.4353 0 19.8709 0 18.1878C0 16.505 0.381373 14.9453 1.17834 13.5506L1.18304 13.5424L1.18783 13.5342C1.99049 12.1675 3.0864 11.081 4.45778 10.2966C5.86681 9.48282 7.43585 9.08935 9.12534 9.08935C10.6507 9.08935 12.0723 9.41951 13.3516 10.1141C13.3749 10.1266 13.3981 10.1391 13.4212 10.1517V5.35834C13.4212 4.79122 13.593 4.14953 14.1033 3.63919L14.1365 3.60606L14.1715 3.57493ZM15.8225 3.26563C15.3016 3.26563 14.7927 3.43559 14.3765 3.80558L14.3483 3.83069L14.3215 3.85741C13.8826 4.29634 13.7298 4.85172 13.7298 5.35834V10.6856L13.4975 10.5495C13.4018 10.4934 13.3045 10.4389 13.2056 10.386L13.2048 10.3855C11.9754 9.71793 10.6052 9.39795 9.12534 9.39795C7.48533 9.39795 5.97022 9.77941 4.6119 10.5639L4.61133 10.5642C3.28686 11.3218 2.22961 12.3697 1.45393 13.6905L1.45052 13.6963L1.44961 13.6978L1.44627 13.7037C1.44627 13.7037 1.44628 13.7037 1.44627 13.7037C0.678637 15.0471 0.308598 16.5531 0.308598 18.1878C0.308598 19.8228 0.678689 21.3342 1.44199 22.6912L1.44786 22.7017L1.45393 22.712C2.2284 24.0307 3.28245 25.0847 4.60113 25.8592L4.61147 25.8653L4.6219 25.8711C5.97888 26.6344 7.49035 27.0045 9.12534 27.0045C10.7431 27.0045 12.2327 26.634 13.559 25.865L13.5597 25.8645C14.8786 25.11 15.9348 24.075 16.7115 22.7736C17.5002 21.4519 17.8945 19.9719 17.9151 18.3657L17.9152 18.3584V5.35834C17.9152 4.85172 17.7623 4.29634 17.3234 3.85741C16.8845 3.41847 16.3291 3.26563 15.8225 3.26563ZM15.3367 4.8789C15.2307 4.9867 15.1699 5.14008 15.1699 5.35834V14.2951L14.8842 13.8308C14.7698 13.645 14.646 13.4669 14.5127 13.2965C14.2162 12.9174 13.8723 12.576 13.4809 12.2722C13.1883 12.0451 12.8688 11.8389 12.5222 11.6536L12.5212 11.6531C11.5242 11.1109 10.3935 10.8381 9.12534 10.8381C7.71569 10.8381 6.4517 11.1637 5.32952 11.8125L5.32885 11.8129C4.22302 12.4448 3.34604 13.3128 2.69619 14.419C2.06565 15.5228 1.74872 16.7777 1.74872 18.1878C1.74872 19.5977 2.06556 20.8618 2.69647 21.984C3.34627 23.0899 4.22325 23.9669 5.3292 24.6167C6.45133 25.2476 7.71547 25.5644 9.12534 25.5644C10.5175 25.5644 11.7544 25.2475 12.8402 24.617L12.8411 24.6165C13.9478 23.9841 14.8251 23.1243 15.4748 22.0356C16.1231 20.9493 16.4573 19.7215 16.4751 18.3482V5.35834C16.4751 5.13793 16.413 4.98369 16.3051 4.87573C16.1971 4.76777 16.0429 4.70575 15.8225 4.70575C15.6256 4.70575 15.4669 4.76464 15.3367 4.8789ZM15.1282 4.6513C15.3202 4.48066 15.5548 4.39715 15.8225 4.39715C16.1041 4.39715 16.3444 4.47858 16.5233 4.65751C16.7022 4.83645 16.7837 5.07668 16.7837 5.35834V18.3502L16.7836 18.3511C16.7654 19.7747 16.4183 21.0568 15.7398 22.1937C15.0628 23.3282 14.147 24.2256 12.9946 24.8842C11.8572 25.5445 10.566 25.873 9.12534 25.873C7.66681 25.873 6.34935 25.5446 5.17665 24.8849L5.17539 24.8842L5.17415 24.8835C4.02183 24.2067 3.10639 23.2913 2.42963 22.139L2.4289 22.1377L2.4282 22.1365C1.76856 20.9638 1.44012 19.6463 1.44012 18.1878C1.44012 16.7293 1.76855 15.4204 2.42871 14.2651L2.42917 14.2643L2.42963 14.2635C3.10656 13.1109 4.02243 12.204 5.17551 11.5451C6.34835 10.8671 7.66624 10.5295 9.12534 10.5295C10.439 10.5295 11.6212 10.8125 12.6682 11.3817C13.0291 11.5747 13.3631 11.7902 13.6701 12.0284C14.0811 12.3473 14.4431 12.7067 14.7558 13.1064C14.7916 13.1522 14.8268 13.1985 14.8613 13.2453V5.35834C14.8613 5.07668 14.9427 4.83645 15.1217 4.65751L15.1249 4.65431L15.1282 4.6513ZM6.03456 12.8639C6.95636 12.3111 7.98791 12.0357 9.12534 12.0357C10.2799 12.0357 11.3119 12.3107 12.2167 12.8643C12.7612 13.1803 13.2359 13.5648 13.6397 14.0178C13.7467 14.1378 13.8486 14.2625 13.9455 14.392C14.0997 14.5979 14.241 14.8157 14.3697 15.0453C14.4839 15.2424 14.586 15.4454 14.6758 15.6543C15.006 16.4223 15.1699 17.2675 15.1699 18.1878C15.1699 19.3594 14.9042 20.417 14.37 21.3567C13.8546 22.2769 13.1361 23.0134 12.2171 23.5648L12.2163 23.5653C11.3114 24.1009 10.2796 24.3668 9.12534 24.3668C7.98849 24.3668 6.95732 24.1006 6.03556 23.566L6.03457 23.5654L6.03359 23.5648C5.11487 23.0136 4.38791 22.2776 3.8547 21.3583L3.85405 21.3571C3.31965 20.4173 3.05389 19.3596 3.05389 18.1878C3.05389 17.016 3.31964 15.9667 3.8547 15.0442C4.38799 14.1248 5.11524 13.3974 6.03456 12.8639ZM9.12534 12.3443C8.03976 12.3443 7.06338 12.6065 6.19236 13.1291L6.19138 13.1297L6.19039 13.1303C5.3171 13.6368 4.62816 14.3258 4.12165 15.199C3.61673 16.0696 3.36249 17.0644 3.36249 18.1878C3.36249 19.3109 3.61661 20.315 4.12199 21.204C4.62854 22.0772 5.31768 22.7752 6.19139 23.2996C7.06244 23.8046 8.03919 24.0582 9.12534 24.0582C10.2302 24.0582 11.2064 23.8043 12.0587 23.3C12.9324 22.7757 13.6124 22.078 14.101 21.2055L14.1015 21.2046C14.6071 20.3154 14.8613 19.3111 14.8613 18.1878C14.8613 17.3048 14.7042 16.5016 14.3923 15.7762C14.3072 15.5782 14.2105 15.3859 14.1021 15.199L14.1015 15.198L14.101 15.197C13.9787 14.9786 13.8445 14.772 13.6985 14.5769C13.6068 14.4545 13.5104 14.3365 13.4094 14.2232C13.0278 13.7951 12.5784 13.4308 12.0603 13.1303L12.0587 13.1294L12.0571 13.1284C11.2051 12.6068 10.2294 12.3443 9.12534 12.3443ZM9.12534 13.7844C8.2836 13.7844 7.56622 13.9843 6.93329 14.364L6.92315 14.3701L6.91292 14.3761C6.25663 14.7567 5.74805 15.2653 5.3674 15.9216C5.00309 16.5497 4.80261 17.2903 4.80261 18.1878C4.80261 19.0821 5.0018 19.8354 5.37084 20.4868C5.75194 21.1417 6.26262 21.6607 6.92302 22.0591C7.55645 22.4242 8.27797 22.6181 9.12534 22.6181C9.99855 22.6181 10.7153 22.4206 11.3216 22.0628C11.9821 21.6656 12.4814 21.1501 12.8445 20.5018L12.8468 20.4977L12.8472 20.4968L12.8496 20.4927C13.2208 19.84 13.4212 19.0848 13.4212 18.1878C13.4212 17.2903 13.2207 16.5497 12.8564 15.9216L12.8503 15.9112L12.8445 15.9007C12.4834 15.2558 11.9892 14.7539 11.3378 14.3761L11.3213 14.3665L11.3052 14.3566C10.701 13.9867 9.99043 13.7844 9.12534 13.7844ZM6.77452 14.0994C7.45845 13.6891 8.23131 13.4758 9.12534 13.4758C10.0417 13.4758 10.8091 13.6911 11.4663 14.0935L11.4794 14.1014L11.4926 14.1091C12.1915 14.5145 12.7253 15.0563 13.1137 15.7499C13.1137 15.7499 13.1137 15.7499 13.1137 15.7499L13.1184 15.7583L13.1233 15.7668C13.5177 16.4468 13.7298 17.2418 13.7298 18.1878C13.7298 19.1333 13.5178 19.9418 13.1179 20.6452M13.1179 20.6452L13.116 20.6485L13.1155 20.6493L13.1137 20.6526C13.1137 20.6526 13.1137 20.6526 13.1137 20.6526C12.7238 21.3488 12.186 21.9032 11.48 22.3277L11.4789 22.3283C10.8201 22.7172 10.048 22.9267 9.12534 22.9267C8.22735 22.9267 7.45161 22.7202 6.7676 22.3258L6.7663 22.325L6.76502 22.3242C6.05971 21.899 5.51136 21.3421 5.10366 20.6412L5.10323 20.6405L5.1028 20.6397C4.70484 19.9376 4.49401 19.1309 4.49401 18.1878C4.49401 17.2418 4.70603 16.4468 5.10045 15.7668C5.50807 15.064 6.0553 14.5167 6.75809 14.1091L6.76634 14.1043L6.77452 14.0994" fill="url(#paint2_linear_154_63)"/>
<path fill-rule="evenodd" clip-rule="evenodd" d="M30.1998 26.0518L30.2114 26.045C31.5528 25.2572 32.6257 24.1842 33.4135 22.8429L33.4203 22.8313L33.4269 22.8196C34.2043 21.4375 34.5801 19.8996 34.5801 18.2405C34.5801 16.5818 34.2044 15.0489 33.4221 13.6799L33.4178 13.6724L33.4135 13.6651C32.6243 12.3213 31.5477 11.254 30.1996 10.483C28.8159 9.68387 27.2738 9.29638 25.609 9.29638C24.1064 9.29638 22.7104 9.62149 21.4559 10.3027C21.3553 10.3565 21.2563 10.412 21.1589 10.4691V5.41107C21.1589 4.8742 20.9966 4.27567 20.5219 3.80103L20.492 3.77111L20.4604 3.74299C20.0135 3.34574 19.4672 3.16406 18.9119 3.16406C18.375 3.16406 17.7765 3.3264 17.3019 3.80103C16.8272 4.27567 16.6649 4.8742 16.6649 5.41107V18.4111L16.665 18.4204C16.6859 20.0515 17.0866 21.5585 17.8904 22.9054C18.6807 24.2297 19.7562 25.2835 21.098 26.0512C22.4502 26.8352 23.9669 27.2116 25.609 27.2116C27.2681 27.2116 28.806 26.8358 30.1881 26.0584L30.1998 26.0518ZM21.8167 24.8032C20.687 24.1577 19.7905 23.2791 19.1271 22.1674C18.4636 21.0557 18.1229 19.8005 18.105 18.4019V5.41107C18.105 5.16004 18.1767 4.9628 18.3202 4.81935C18.4636 4.67591 18.6609 4.60419 18.9119 4.60419C19.145 4.60419 19.3422 4.67591 19.5036 4.81935C19.6471 4.9628 19.7188 5.16004 19.7188 5.41107V13.8027C19.8361 13.612 19.9632 13.4291 20.1001 13.2542C20.4047 12.8648 20.7577 12.5144 21.1589 12.203C21.4588 11.9703 21.7856 11.7594 22.1394 11.5703C23.1615 11.0144 24.318 10.7365 25.609 10.7365C27.0435 10.7365 28.3345 11.0682 29.4821 11.7317C30.6117 12.3772 31.5083 13.2647 32.1717 14.3944C32.8172 15.524 33.14 16.8061 33.14 18.2405C33.14 19.675 32.8172 20.966 32.1717 22.1136C31.5083 23.2432 30.6117 24.1397 29.4821 24.8032C28.3345 25.4487 27.0435 25.7714 25.609 25.7714C24.1925 25.7714 22.9284 25.4487 21.8167 24.8032ZM20.4988 15.1744C20.6243 14.9502 20.7622 14.7378 20.9124 14.5372C21.0067 14.4112 21.1058 14.2899 21.2098 14.1732C21.6028 13.7325 22.065 13.3579 22.5967 13.0496C23.4753 12.5116 24.4794 12.2427 25.609 12.2427C26.7207 12.2427 27.7249 12.5116 28.6214 13.0496C29.5179 13.5696 30.2262 14.2778 30.7462 15.1744C31.2662 16.0709 31.5262 17.093 31.5262 18.2405C31.5262 19.3881 31.2662 20.4191 30.7462 21.3336C30.2262 22.2301 29.5179 22.9473 28.6214 23.4853C27.7249 24.0053 26.7207 24.2653 25.609 24.2653C24.4794 24.2653 23.4753 24.0053 22.5967 23.4853C21.7001 22.9473 21.0008 22.2301 20.4988 21.3336C19.9788 20.4191 19.7188 19.3881 19.7188 18.2405C19.7188 17.3389 19.8793 16.5147 20.2003 15.768C20.2879 15.5644 20.3873 15.3665 20.4988 15.1744ZM23.3339 22.2481C22.6505 21.8373 22.1318 21.3023 21.7553 20.6299L21.753 20.6258L21.7507 20.6217C21.3651 19.9436 21.1589 19.1618 21.1589 18.2405C21.1589 17.3188 21.3652 16.551 21.7445 15.8969L21.75 15.8875L21.7553 15.878C22.13 15.2088 22.644 14.6869 23.3192 14.2953L23.334 14.2867L23.3486 14.2778C23.9793 13.8916 24.7183 13.6828 25.609 13.6828C26.4769 13.6828 27.222 13.8894 27.8805 14.2845L27.8896 14.29L27.8989 14.2953C28.5784 14.6895 29.1063 15.2174 29.5004 15.8969C29.8798 16.551 30.0861 17.3188 30.0861 18.2405C30.0861 19.1594 29.881 19.9395 29.4973 20.6164C29.1028 21.2947 28.573 21.8329 27.8897 22.2448C27.2308 22.6248 26.482 22.8251 25.609 22.8251C24.711 22.8251 23.9665 22.6216 23.3339 22.2481Z" fill="url(#paint3_linear_154_63)"/>
<path fill-rule="evenodd" clip-rule="evenodd" d="M20.5629 3.62767C20.0853 3.20316 19.5017 3.00977 18.9119 3.00977C18.3448 3.00977 17.7031 3.18159 17.1928 3.69193C16.6824 4.20226 16.5106 4.84395 16.5106 5.41107V18.4121L16.5107 18.4223C16.532 20.0784 16.9391 21.6124 17.7579 22.9844C18.5619 24.3316 19.6565 25.4042 21.0211 26.1849C22.399 26.9838 23.9428 27.3659 25.609 27.3659C27.2921 27.3659 28.8565 26.9844 30.2638 26.1928L30.2767 26.1856L30.2895 26.178C31.6536 25.3769 32.7454 24.2851 33.5465 22.921L33.5541 22.9082L33.5614 22.8952C34.3529 21.488 34.7344 19.9236 34.7344 18.2405C34.7344 16.5578 34.353 14.998 33.556 13.6033L33.5513 13.5951L33.5465 13.5869C32.7439 12.2202 31.648 11.1337 30.2766 10.3493C28.8676 9.53555 27.2985 9.14208 25.609 9.14208C24.0837 9.14208 22.6621 9.47224 21.3827 10.1669C21.3595 10.1793 21.3363 10.1918 21.3132 10.2045V5.41107C21.3132 4.84395 21.1414 4.20226 20.631 3.69193L20.5979 3.6588L20.5629 3.62767ZM18.9119 3.31836C19.4328 3.31836 19.9416 3.48833 20.3579 3.85832L20.3861 3.88343L20.4128 3.91014C20.8518 4.34908 21.0046 4.90445 21.0046 5.41107V10.7384L21.2369 10.6022C21.3326 10.5461 21.4299 10.4916 21.5288 10.4387L21.5296 10.4383C22.759 9.77067 24.1292 9.45068 25.609 9.45068C27.249 9.45068 28.7642 9.83214 30.1225 10.6167L30.123 10.617C31.4475 11.3745 32.5048 12.4225 33.2804 13.7432L33.2839 13.749L33.2848 13.7506L33.2881 13.7564C33.2881 13.7564 33.2881 13.7564 33.2881 13.7564C34.0557 15.0998 34.4258 16.6058 34.4258 18.2405C34.4258 19.8755 34.0557 21.387 33.2924 22.744L33.2865 22.7544L33.2804 22.7647C32.506 24.0834 31.4519 25.1375 30.1332 25.9119L30.1229 25.918L30.1125 25.9239C28.7555 26.6872 27.244 27.0573 25.609 27.0573C23.9912 27.0573 22.5017 26.6867 21.1754 25.9177L21.1746 25.9172C19.8557 25.1627 18.7996 24.1277 18.0229 22.8263C17.2342 21.5046 16.8399 20.0246 16.8193 18.4184L16.8192 18.4111V5.41107C16.8192 4.90445 16.972 4.34908 17.411 3.91014C17.8499 3.4712 18.4053 3.31836 18.9119 3.31836ZM19.3977 4.93163C19.5037 5.03943 19.5645 5.19281 19.5645 5.41107V14.3478L19.8502 13.8835C19.9645 13.6977 20.0884 13.5196 20.2216 13.3493C20.5182 12.9701 20.862 12.6287 21.2535 12.3249C21.5461 12.0978 21.8656 11.8916 22.2122 11.7064L22.2132 11.7058C23.2102 11.1636 24.3409 10.8908 25.609 10.8908C27.0187 10.8908 28.2827 11.2165 29.4049 11.8652L29.4055 11.8656C30.5114 12.4975 31.3883 13.3655 32.0382 14.4717C32.6687 15.5755 32.9857 16.8304 32.9857 18.2405C32.9857 19.6504 32.6688 20.9146 32.0379 22.0367C31.3881 23.1426 30.5111 24.0196 29.4052 24.6694C28.283 25.3003 27.0189 25.6171 25.609 25.6171C24.2169 25.6171 22.98 25.3002 21.8942 24.6697L21.8932 24.6692C20.7865 24.0368 19.9093 23.1771 19.2596 22.0883C18.6113 21.002 18.2771 19.7742 18.2593 18.4009V5.41107C18.2593 5.19066 18.3213 5.03642 18.4293 4.92846C18.5373 4.8205 18.6915 4.75849 18.9119 4.75849C19.1087 4.75849 19.2675 4.81738 19.3977 4.93163ZM19.6061 4.70403C19.4142 4.53339 19.1795 4.44989 18.9119 4.44989C18.6302 4.44989 18.39 4.53132 18.2111 4.71025C18.0322 4.88918 17.9507 5.12941 17.9507 5.41107V18.4029L17.9507 18.4039C17.969 19.8274 18.3161 21.1095 18.9946 22.2464C19.6716 23.3809 20.5873 24.2783 21.7397 24.9369C22.8772 25.5973 24.1684 25.9257 25.609 25.9257C27.0676 25.9257 28.385 25.5973 29.5577 24.9377L29.559 24.937L29.5602 24.9362C30.7125 24.2595 31.628 23.344 32.3047 22.1917L32.3055 22.1905L32.3062 22.1892C32.9658 21.0165 33.2943 19.699 33.2943 18.2405C33.2943 16.782 32.9658 15.4731 32.3057 14.3178L32.3052 14.317L32.3047 14.3162C31.6278 13.1636 30.7119 12.2568 29.5589 11.5978C28.386 10.9199 27.0681 10.5822 25.609 10.5822C24.2953 10.5822 23.1131 10.8652 22.0662 11.4345C21.7053 11.6274 21.3713 11.8429 21.0643 12.0811C20.6533 12.4001 20.2912 12.7594 19.9786 13.1591C19.9428 13.2049 19.9076 13.2512 19.8731 13.298V5.41107C19.8731 5.12941 19.7917 4.88918 19.6127 4.71025L19.6095 4.70704L19.6061 4.70403ZM28.6998 12.9167C27.778 12.3638 26.7465 12.0884 25.609 12.0884C24.4545 12.0884 23.4225 12.3635 22.5177 12.917C21.9731 13.2331 21.4985 13.6175 21.0947 14.0705C20.9877 14.1905 20.8858 14.3152 20.7888 14.4447C20.6347 14.6506 20.4933 14.8684 20.3647 15.098C20.2504 15.2951 20.1484 15.4981 20.0586 15.7071C19.7284 16.475 19.5645 17.3202 19.5645 18.2405C19.5645 19.4122 19.8302 20.4697 20.3644 21.4094C20.8798 22.3296 21.5983 23.0662 22.5173 23.6176L22.5181 23.6181C23.423 24.1536 24.4548 24.4196 25.609 24.4196C26.7459 24.4196 27.7771 24.1534 28.6988 23.6187L28.6998 23.6182L28.7008 23.6176C29.6195 23.0663 30.3465 22.3303 30.8797 21.411L30.8803 21.4098C31.4147 20.4701 31.6805 19.4123 31.6805 18.2405C31.6805 17.0688 31.4147 16.0195 30.8797 15.097C30.3464 14.1775 29.6191 13.4501 28.6998 12.9167ZM25.609 12.397C26.6946 12.397 27.671 12.6593 28.542 13.1819L28.543 13.1825L28.544 13.183C29.4173 13.6896 30.1062 14.3785 30.6127 15.2518C31.1176 16.1223 31.3719 17.1172 31.3719 18.2405C31.3719 19.3636 31.1178 20.3677 30.6124 21.2567C30.1058 22.1299 29.4167 22.8279 28.543 23.3524C27.6719 23.8573 26.6952 24.111 25.609 24.111C24.5042 24.111 23.5279 23.857 22.6757 23.3528C21.802 22.8284 21.122 22.1307 20.6334 21.2582L20.6329 21.2573C20.1273 20.3682 19.8731 19.3638 19.8731 18.2405C19.8731 17.3575 20.0302 16.5544 20.3421 15.829C20.4272 15.631 20.5239 15.4386 20.6322 15.2518L20.6328 15.2508L20.6334 15.2498C20.7557 15.0314 20.8899 14.8247 21.0359 14.6296C21.1276 14.5072 21.2239 14.3893 21.325 14.2759C21.7066 13.8478 22.156 13.4835 22.6741 13.183L22.6757 13.1821L22.6772 13.1812C23.5293 12.6595 24.505 12.397 25.609 12.397ZM25.609 13.8371C26.4508 13.8371 27.1682 14.037 27.8011 14.4168L27.8112 14.4229L27.8215 14.4288C28.4777 14.8094 28.9863 15.318 29.367 15.9743C29.7313 16.6024 29.9318 17.343 29.9318 18.2405C29.9318 19.1349 29.7326 19.8881 29.3635 20.5396C28.9824 21.1945 28.4718 21.7135 27.8114 22.1119C27.1779 22.4769 26.4564 22.6708 25.609 22.6708C24.7358 22.6708 24.0191 22.4734 23.4128 22.1155C22.7523 21.7183 22.253 21.2029 21.8899 20.5545L21.8876 20.5504L21.8871 20.5496L21.8848 20.5455C21.5136 19.8927 21.3132 19.1376 21.3132 18.2405C21.3132 17.343 21.5137 16.6024 21.878 15.9743L21.884 15.9639L21.8899 15.9534C22.251 15.3086 22.7451 14.8067 23.3966 14.4288L23.413 14.4193L23.4292 14.4094C24.0334 14.0395 24.7439 13.8371 25.609 13.8371ZM27.9599 14.1522C27.2759 13.7418 26.5031 13.5285 25.609 13.5285C24.6927 13.5285 23.9253 13.7438 23.2681 14.1462L23.255 14.1542L23.2418 14.1618C22.5429 14.5672 22.0091 15.1091 21.6207 15.8026C21.6207 15.8026 21.6207 15.8026 21.6207 15.8026L21.6159 15.8111L21.611 15.8195C21.2166 16.4995 21.0046 17.2946 21.0046 18.2405C21.0046 19.1861 21.2165 19.9946 21.6165 20.698M21.6165 20.698L21.6184 20.7012L21.6188 20.7021L21.6207 20.7053C21.6207 20.7053 21.6207 20.7053 21.6207 20.7053C22.0105 21.4015 22.5484 21.9559 23.2544 22.3804L23.2555 22.381C23.9143 22.77 24.6864 22.9794 25.609 22.9794C26.507 22.9794 27.2828 22.773 27.9668 22.3785L27.9681 22.3777L27.9694 22.377C28.6747 21.9518 29.223 21.3949 29.6307 20.694L29.6311 20.6932L29.6316 20.6925C30.0295 19.9904 30.2404 19.1836 30.2404 18.2405C30.2404 17.2946 30.0283 16.4995 29.6339 15.8195C29.2263 15.1167 28.6791 14.5695 27.9763 14.1618L27.968 14.1571L27.9599 14.1522" fill="url(#paint4_linear_154_63)"/>
<path d="M71.0385 32.3672C70.9602 32.3672 70.8944 32.3405 70.8411 32.2872C70.7877 32.2338 70.761 32.168 70.761 32.0898V28.478C70.761 28.3962 70.7877 28.3304 70.8411 28.2806C70.8944 28.2272 70.9602 28.2006 71.0385 28.2006C71.1452 28.2006 71.227 28.2503 71.2839 28.3499L72.9537 31.695H72.783L74.4102 28.3499C74.4671 28.2503 74.5489 28.2006 74.6556 28.2006C74.7338 28.2006 74.7996 28.2272 74.853 28.2806C74.9063 28.3304 74.933 28.3962 74.933 28.478V32.0898C74.933 32.168 74.9046 32.2338 74.8477 32.2872C74.7943 32.3405 74.7303 32.3672 74.6556 32.3672C74.5773 32.3672 74.5115 32.3405 74.4582 32.2872C74.4048 32.2338 74.3782 32.168 74.3782 32.0898V29.2462L74.4849 29.2195L73.0871 32.0684C73.0266 32.1609 72.9466 32.2071 72.847 32.2071C72.7297 32.2071 72.6443 32.152 72.5909 32.0418L71.2092 29.2729L71.3159 29.2462V32.0898C71.3159 32.168 71.2892 32.2338 71.2359 32.2872C71.1825 32.3405 71.1167 32.3672 71.0385 32.3672ZM75.8369 32.3672C75.7373 32.3672 75.6608 32.3245 75.6075 32.2391C75.5541 32.1538 75.5488 32.0631 75.5915 31.9671L77.0906 28.3873C77.144 28.2628 77.2311 28.2006 77.352 28.2006C77.4801 28.2006 77.5672 28.2628 77.6134 28.3873L79.1179 31.9777C79.157 32.0773 79.1499 32.168 79.0966 32.2498C79.0468 32.3281 78.9703 32.3672 78.8672 32.3672C78.8138 32.3672 78.7622 32.353 78.7124 32.3245C78.6662 32.2925 78.6324 32.2498 78.6111 32.1965L77.288 28.9101H77.4374L76.093 32.1965C76.0681 32.2534 76.0307 32.2961 75.9809 32.3245C75.9347 32.353 75.8867 32.3672 75.8369 32.3672ZM76.1196 31.4496L76.333 30.9908H78.4244L78.6378 31.4496H76.1196ZM80.0309 32.3672C79.9526 32.3672 79.8868 32.3405 79.8335 32.2872C79.7801 32.2338 79.7534 32.168 79.7534 32.0898V28.478C79.7534 28.3962 79.7801 28.3304 79.8335 28.2806C79.8868 28.2272 79.9526 28.2006 80.0309 28.2006H80.9912C81.2579 28.2006 81.4944 28.2575 81.7007 28.3713C81.907 28.4815 82.067 28.6345 82.1809 28.8301C82.2982 29.0257 82.3569 29.2533 82.3569 29.513C82.3569 29.7548 82.2982 29.97 82.1809 30.1585C82.067 30.347 81.907 30.4946 81.7007 30.6013C81.4944 30.708 81.2579 30.7614 80.9912 30.7614H80.3083V32.0898C80.3083 32.168 80.2816 32.2338 80.2283 32.2872C80.1785 32.3405 80.1127 32.3672 80.0309 32.3672ZM82.2449 32.3672C82.1951 32.3672 82.1489 32.3565 82.1062 32.3352C82.067 32.3138 82.0333 32.28 82.0048 32.2338L81.0445 30.6867L81.5833 30.5319L82.4583 31.9404C82.5223 32.0435 82.5312 32.1413 82.485 32.2338C82.4387 32.3227 82.3587 32.3672 82.2449 32.3672ZM80.3083 30.2492H80.9912C81.1548 30.2492 81.2988 30.219 81.4233 30.1585C81.5478 30.0945 81.6456 30.0073 81.7167 29.8971C81.7879 29.7833 81.8234 29.6552 81.8234 29.513C81.8234 29.3565 81.7879 29.2178 81.7167 29.0968C81.6456 28.9759 81.5478 28.8817 81.4233 28.8141C81.2988 28.7465 81.1548 28.7127 80.9912 28.7127H80.3083V30.2492ZM83.4017 32.3672C83.327 32.3672 83.2612 32.3405 83.2043 32.2872C83.151 32.2338 83.1243 32.168 83.1243 32.0898V28.478C83.1243 28.3997 83.151 28.3339 83.2043 28.2806C83.2612 28.2272 83.327 28.2006 83.4017 28.2006C83.48 28.2006 83.5457 28.2272 83.5991 28.2806C83.6524 28.3339 83.6791 28.3997 83.6791 28.478V30.0785L85.445 28.3126C85.4877 28.2699 85.5268 28.2415 85.5624 28.2272C85.5979 28.2094 85.6353 28.2006 85.6744 28.2006C85.7633 28.2006 85.8274 28.2272 85.8665 28.2806C85.9056 28.3339 85.9198 28.3979 85.9092 28.4726C85.8985 28.5438 85.8647 28.6096 85.8078 28.67L84.4474 30.0358L85.8345 31.9244C85.8771 31.9848 85.8949 32.0506 85.8878 32.1218C85.8807 32.1894 85.8558 32.248 85.8131 32.2978C85.7704 32.3441 85.7135 32.3672 85.6424 32.3672C85.5428 32.3672 85.4663 32.3281 85.413 32.2498L84.0632 30.4199L83.6791 30.804V32.0898C83.6791 32.168 83.6524 32.2338 83.5991 32.2872C83.5457 32.3405 83.48 32.3672 83.4017 32.3672ZM86.9601 32.3672C86.8819 32.3672 86.8161 32.3405 86.7627 32.2872C86.7094 32.2338 86.6827 32.168 86.6827 32.0898V28.478C86.6827 28.3962 86.7094 28.3304 86.7627 28.2806C86.8161 28.2272 86.8819 28.2006 86.9601 28.2006H89.3715C89.4533 28.2006 89.5191 28.2254 89.5689 28.2752C89.6187 28.3215 89.6436 28.3837 89.6436 28.462C89.6436 28.5367 89.6187 28.5971 89.5689 28.6434C89.5191 28.6896 89.4533 28.7127 89.3715 28.7127H87.2375V30.0091H88.7687C88.8505 30.0091 88.9163 30.034 88.9661 30.0838C89.0159 30.13 89.0408 30.1905 89.0408 30.2652C89.0408 30.3399 89.0159 30.4021 88.9661 30.4519C88.9163 30.4982 88.8505 30.5213 88.7687 30.5213H87.2375V31.855H89.3715C89.4533 31.855 89.5191 31.8781 89.5689 31.9244C89.6187 31.9706 89.6436 32.0311 89.6436 32.1058C89.6436 32.184 89.6187 32.248 89.5689 32.2978C89.5191 32.3441 89.4533 32.3672 89.3715 32.3672H86.9601ZM91.6506 32.3672C91.5724 32.3672 91.5066 32.3405 91.4532 32.2872C91.3999 32.2338 91.3732 32.168 91.3732 32.0898V28.2006H91.928V32.0898C91.928 32.168 91.9014 32.2338 91.848 32.2872C91.7947 32.3405 91.7289 32.3672 91.6506 32.3672ZM90.2208 28.7127C90.1461 28.7127 90.0839 28.6896 90.0341 28.6434C89.9879 28.5936 89.9648 28.5313 89.9648 28.4566C89.9648 28.3819 89.9879 28.3215 90.0341 28.2752C90.0839 28.2254 90.1461 28.2006 90.2208 28.2006H93.0751C93.1498 28.2006 93.2102 28.2254 93.2565 28.2752C93.3062 28.3215 93.3311 28.3819 93.3311 28.4566C93.3311 28.5313 93.3062 28.5936 93.2565 28.6434C93.2102 28.6896 93.1498 28.7127 93.0751 28.7127H90.2208ZM94.2228 32.3672C94.1446 32.3672 94.0788 32.3405 94.0254 32.2872C93.9721 32.2338 93.9454 32.168 93.9454 32.0898V28.478C93.9454 28.3962 93.9721 28.3304 94.0254 28.2806C94.0788 28.2272 94.1446 28.2006 94.2228 28.2006C94.3046 28.2006 94.3704 28.2272 94.4202 28.2806C94.4735 28.3304 94.5002 28.3962 94.5002 28.478V32.0898C94.5002 32.168 94.4735 32.2338 94.4202 32.2872C94.3704 32.3405 94.3046 32.3672 94.2228 32.3672ZM95.8378 32.3672C95.7595 32.3672 95.6937 32.3405 95.6404 32.2872C95.5906 32.2338 95.5657 32.168 95.5657 32.0898V28.478C95.5657 28.3962 95.5906 28.3304 95.6404 28.2806C95.6937 28.2272 95.7595 28.2006 95.8378 28.2006C95.9231 28.2006 95.9943 28.2343 96.0512 28.3019L98.3772 31.3962V28.478C98.3772 28.3962 98.4039 28.3304 98.4572 28.2806C98.5106 28.2272 98.5764 28.2006 98.6546 28.2006C98.7364 28.2006 98.8022 28.2272 98.852 28.2806C98.9018 28.3304 98.9267 28.3962 98.9267 28.478V32.0898C98.9267 32.168 98.9018 32.2338 98.852 32.2872C98.8022 32.3405 98.7364 32.3672 98.6546 32.3672C98.6191 32.3672 98.58 32.3601 98.5373 32.3458C98.4982 32.3281 98.4661 32.3032 98.4412 32.2712L96.1152 29.1769V32.0898C96.1152 32.168 96.0885 32.2338 96.0352 32.2872C95.9854 32.3405 95.9196 32.3672 95.8378 32.3672ZM101.861 32.4205C101.573 32.4205 101.303 32.3672 101.05 32.2605C100.802 32.1502 100.583 31.9991 100.394 31.807C100.209 31.6114 100.064 31.3838 99.9568 31.1241C99.8537 30.8645 99.8021 30.5835 99.8021 30.2812C99.8021 29.9824 99.8537 29.705 99.9568 29.4489C100.064 29.1893 100.209 28.9635 100.394 28.7714C100.583 28.5758 100.802 28.4228 101.05 28.3126C101.299 28.2023 101.57 28.1472 101.861 28.1472C102.135 28.1472 102.37 28.1828 102.566 28.2539C102.765 28.325 102.964 28.4424 103.163 28.606C103.192 28.6274 103.213 28.6505 103.227 28.6754C103.245 28.6967 103.256 28.7198 103.259 28.7447C103.266 28.7661 103.27 28.7927 103.27 28.8247C103.27 28.8923 103.245 28.9492 103.195 28.9955C103.149 29.0417 103.09 29.0666 103.019 29.0702C102.952 29.0737 102.887 29.0506 102.827 29.0008C102.695 28.887 102.559 28.7998 102.416 28.7394C102.278 28.6789 102.093 28.6487 101.861 28.6487C101.652 28.6487 101.454 28.6914 101.269 28.7767C101.084 28.8621 100.921 28.9795 100.778 29.1288C100.64 29.2782 100.531 29.4525 100.453 29.6517C100.375 29.8473 100.336 30.0571 100.336 30.2812C100.336 30.5088 100.375 30.7222 100.453 30.9214C100.531 31.117 100.64 31.2895 100.778 31.4389C100.921 31.5883 101.084 31.7056 101.269 31.791C101.454 31.8728 101.652 31.9137 101.861 31.9137C102.043 31.9137 102.214 31.8835 102.374 31.823C102.537 31.759 102.694 31.6719 102.843 31.5616C102.907 31.5154 102.969 31.4958 103.03 31.5029C103.094 31.5065 103.147 31.5314 103.19 31.5776C103.232 31.6203 103.254 31.6808 103.254 31.759C103.254 31.7946 103.247 31.8301 103.232 31.8657C103.222 31.8977 103.2 31.9279 103.168 31.9564C102.98 32.1129 102.775 32.2303 102.555 32.3085C102.334 32.3832 102.103 32.4205 101.861 32.4205ZM103.254 31.759L102.72 31.6523V30.6973H101.984C101.906 30.6973 101.84 30.6742 101.787 30.628C101.733 30.5817 101.707 30.5231 101.707 30.4519C101.707 30.3808 101.733 30.3221 101.787 30.2759C101.84 30.2296 101.906 30.2065 101.984 30.2065H102.982C103.064 30.2065 103.129 30.2332 103.179 30.2865C103.229 30.3363 103.254 30.4021 103.254 30.4839V31.759Z" fill="url(#paint5_linear_154_63)"/>
<defs>
<linearGradient id="paint0_linear_154_63" x1="37.3201" y1="32.0742" x2="100.459" y2="10.9858" gradientUnits="userSpaceOnUse">
<stop offset="0.38" stop-color="#CFCFCF"/>
<stop offset="1" stop-color="#5A5A5A"/>
</linearGradient>
<linearGradient id="paint1_linear_154_63" x1="18.1889" y1="12.4764" x2="0.0349162" y2="18.3592" gradientUnits="userSpaceOnUse">
<stop offset="0.185" stop-color="#F6AA4A"/>
<stop offset="1" stop-color="#ED3289"/>
</linearGradient>
<linearGradient id="paint2_linear_154_63" x1="18.1889" y1="12.4764" x2="0.0349162" y2="18.3592" gradientUnits="userSpaceOnUse">
<stop offset="0.185" stop-color="#F6AA4A"/>
<stop offset="1" stop-color="#ED3289"/>
</linearGradient>
<linearGradient id="paint3_linear_154_63" x1="17.3477" y1="27.8964" x2="33.5207" y2="3.61011" gradientUnits="userSpaceOnUse">
<stop stop-color="#333E7A"/>
<stop offset="0.414" stop-color="#23E3FA"/>
<stop offset="0.779" stop-color="#E93F9E"/>
</linearGradient>
<linearGradient id="paint4_linear_154_63" x1="17.3477" y1="27.8964" x2="33.5207" y2="3.61011" gradientUnits="userSpaceOnUse">
<stop stop-color="#333E7A"/>
<stop offset="0.414" stop-color="#23E3FA"/>
<stop offset="0.779" stop-color="#E93F9E"/>
</linearGradient>
<linearGradient id="paint5_linear_154_63" x1="70.2275" y1="30.3672" x2="104.228" y2="30.3672" gradientUnits="userSpaceOnUse">
<stop stop-color="#ED3587"/>
<stop offset="1" stop-color="#23E1F8"/>
</linearGradient>
</defs>
</svg>
